<svg xmlns="http://www.w3.org/2000/svg" width="384.058" height="120.058" viewBox="0 0 384.058 120.058">
    <defs>
        <clipPath id="sskbwxaiya">
            <path data-name="Rectangle 51" transform="translate(2585 3238)" style="fill:#ebebeb" d="M0 0h375v104H0z"/>
        </clipPath>
        <filter id="7yqmj6fevb" x="-58.52" y="-15.881" width="510.579" height="209.364" filterUnits="userSpaceOnUse">
            <feOffset dy="3"/>
            <feGaussianBlur stdDeviation="15" result="blur"/>
            <feFlood flood-opacity=".161"/>
            <feComposite operator="in" in2="blur"/>
            <feComposite in="SourceGraphic"/>
        </filter>
    </defs>
    <g data-name="Group 10521">
        <g data-name="Group 224">
            <g data-name="Group 221">
                <g data-name="Group 217">
                    <path data-name="Path 3080" d="M12 0h16a12 12 0 0 1 12 12v11a12 12 0 0 1-12 12H12A12 12 0 0 1 0 23V12A12 12 0 0 1 12 0z" transform="translate(30.058 55)" style="fill:#ed7020;opacity:.122"/>
                </g>
                <g style="clip-path:url(#sskbwxaiya)" data-name="Group 220">
                    <g style="filter:url(#7yqmj6fevb)" data-name="Mask Group 4" transform="translate(-2575.942 -3238)">
                        <path data-name="Union 20" d="m5770.623 1700.509-85.022-19.628h-156.622l-85.022 19.628a33.141 33.141 0 0 1-7.454.854 32.966 32.966 0 0 1-32.123-25.585l-6.524-28.256a32.969 32.969 0 0 1 24.731-39.577l109.13-25.2a29.116 29.116 0 0 1 6.548-.75 28.972 28.972 0 0 1 28.231 22.484l1.422 6.162a39.67 39.67 0 0 0 78.744 0l1.422-6.163a28.964 28.964 0 0 1 34.781-21.733l109.128 25.2a32.97 32.97 0 0 1 24.731 39.577l-6.524 28.256a32.958 32.958 0 0 1-39.577 24.731z" transform="translate(-2834.58 1682.12)" style="fill:#fff"/>
                    </g>
                </g>
            </g>
        </g>
    </g>
</svg>
